<mxfile host="app.diagrams.net" modified="2024-05-28T05:14:25.276Z" agent="Mozilla/5.0 (Windows NT 10.0; Win64; x64) AppleWebKit/537.36 (KHTML, like Gecko) Chrome/123.0.0.0 Safari/537.36 Edg/123.0.0.0" etag="XrGqs2Yyo9lVZPJWUmH_" version="24.4.9" type="github">
  <diagram name="第 1 页" id="nvQce1N_u7E6IXuI6mkc">
    <mxGraphModel dx="1154" dy="656" grid="1" gridSize="10" guides="1" tooltips="1" connect="1" arrows="1" fold="1" page="1" pageScale="1" pageWidth="827" pageHeight="1169" math="0" shadow="0">
      <root>
        <mxCell id="0" />
        <mxCell id="1" parent="0" />
        <mxCell id="y5WzmukbtOXT9IDPHK0q-2" value="" style="rounded=0;whiteSpace=wrap;html=1;" vertex="1" parent="1">
          <mxGeometry x="520" y="170" width="210" height="100" as="geometry" />
        </mxCell>
        <mxCell id="y5WzmukbtOXT9IDPHK0q-3" value="" style="triangle;whiteSpace=wrap;html=1;rotation=-90;" vertex="1" parent="1">
          <mxGeometry x="612.5" y="262.5" width="25" height="40" as="geometry" />
        </mxCell>
      </root>
    </mxGraphModel>
  </diagram>
</mxfile>
